<?xml version="1.0" encoding="UTF-8"?><svg version="1.1" id="Слой_1" xmlns="http://www.w3.org/2000/svg" xmlns:xlink="http://www.w3.org/1999/xlink" x="0px" y="0px" viewBox="0 0 94.556 44.384" style="enable-background:new 0 0 94.556 44.384;" xml:space="preserve" width="95px" height="45px">
<g>
	<path style="fill:#CF4327;" d="M93.794,16.354c-4.09-12.88-22.94-17.56-34.75-16c-9.22,1.2-14.89,6.85-21.07,13.22
		c-4.24,4.4-8.37,7.45-14.51,8.69c-5.23,1.06-10.49,1.37-15.58,3.08c-0.193,0.067-0.381,0.151-0.56,0.25l-0.23,0.08
		c-4.39,2-8.91,6.45-6.35,11.71c2.94,6,12.21,6.48,18,6.82c10.21,0.6,20.55-0.5,30.78-0.42c9.94,0.08,19.92,0.1,29.7-1.87
		c5.59-1.12,9.26-2.56,11.92-7.83S95.674,22.274,93.794,16.354z"/>
	<path style="fill:#CF4327;" d="M39.844,18.974c-1.593-8.514-7.48-15.597-15.56-18.72c-3.9-1.59-5.6,4.74-1.74,6.31
		c5.858,2.504,10.014,7.846,11,14.14c0.74,4.14,7,2.39,6.31-1.74L39.844,18.974z"/>
	<path style="fill:#DB6653;" d="M19.324,36.944c7.54,1.74,14.44-0.68,20.48-5.3c7.39-5.65,15-17,25.65-13.49
		c5.22,1.7,7.46-6.52,2.26-8.21c-7.74-2.52-15.25,0.16-21.52,4.92c-7.13,5.41-14.37,16.22-24.62,13.86c-5.33-1.23-7.61,7-2.26,8.21
		L19.324,36.944z"/>
</g>
</svg>