<svg fill="#000000" xmlns="http://www.w3.org/2000/svg"  viewBox="0 0 50 50" width="50px" height="50px"><path d="M 25 2 C 12.308594 2 2 12.308594 2 25 C 2 37.691406 12.308594 48 25 48 C 37.691406 48 48 37.691406 48 25 C 48 12.308594 37.691406 2 25 2 Z M 25 4 C 36.609375 4 46 13.390625 46 25 C 46 36.609375 36.609375 46 25 46 C 13.390625 46 4 36.609375 4 25 C 4 13.390625 13.390625 4 25 4 Z M 14.8125 18 C 14.261719 18.050781 13.855469 18.542969 13.90625 19.09375 C 13.957031 19.644531 14.449219 20.050781 15 20 L 35 20 C 35.359375 20.003906 35.695313 19.816406 35.878906 19.503906 C 36.058594 19.191406 36.058594 18.808594 35.878906 18.496094 C 35.695313 18.183594 35.359375 17.996094 35 18 L 15 18 C 14.96875 18 14.9375 18 14.90625 18 C 14.875 18 14.84375 18 14.8125 18 Z M 14.8125 24 C 14.261719 24.050781 13.855469 24.542969 13.90625 25.09375 C 13.957031 25.644531 14.449219 26.050781 15 26 L 35 26 C 35.359375 26.003906 35.695313 25.816406 35.878906 25.503906 C 36.058594 25.191406 36.058594 24.808594 35.878906 24.496094 C 35.695313 24.183594 35.359375 23.996094 35 24 L 15 24 C 14.96875 24 14.9375 24 14.90625 24 C 14.875 24 14.84375 24 14.8125 24 Z M 14.8125 30 C 14.261719 30.050781 13.855469 30.542969 13.90625 31.09375 C 13.957031 31.644531 14.449219 32.050781 15 32 L 35 32 C 35.359375 32.003906 35.695313 31.816406 35.878906 31.503906 C 36.058594 31.191406 36.058594 30.808594 35.878906 30.496094 C 35.695313 30.183594 35.359375 29.996094 35 30 L 15 30 C 14.96875 30 14.9375 30 14.90625 30 C 14.875 30 14.84375 30 14.8125 30 Z"/></svg>