<svg fill="#000000" xmlns="http://www.w3.org/2000/svg"  viewBox="0 0 50 50" width="50px" height="50px"><path d="M 25 2 C 12.318 2 2 12.317 2 25 C 2 37.683 12.318 48 25 48 C 28.731 48 32.254047 47.100578 35.373047 45.517578 C 35.198047 45.404578 35.031906 45.274094 34.878906 45.121094 L 33.798828 44.042969 C 31.118828 45.286969 28.145 46 25 46 C 13.42 46 4 36.579 4 25 C 4 13.421 13.42 4 25 4 C 36.58 4 46 13.421 46 25 C 46 28.246 45.238969 31.310641 43.917969 34.056641 C 44.616969 34.132641 45.287687 34.294531 45.929688 34.519531 C 47.255688 31.616531 48 28.394 48 25 C 48 12.317 37.682 2 25 2 z M 24.984375 6.9863281 A 1.0001 1.0001 0 0 0 24 8 L 24 22.175781 A 3 3 0 0 0 22.294922 26.291016 L 16.292969 32.292969 A 1.0001 1.0001 0 1 0 17.707031 33.707031 L 23.707031 27.707031 A 3 3 0 0 0 25 28 A 3 3 0 0 0 26 22.171875 L 26 8 A 1.0001 1.0001 0 0 0 24.984375 6.9863281 z M 36.980469 29.990234 A 1.0001 1.0001 0 0 0 36.292969 30.292969 L 29.585938 37 L 36.292969 43.707031 A 1.0001 1.0001 0 1 0 37.707031 42.292969 L 33.414062 38 L 42.917969 38 C 45.743874 38 48 40.233777 48 43 C 48 45.766223 45.743874 48 42.917969 48 A 1.0001 1.0001 0 1 0 42.917969 50 C 46.810064 50 50 46.861777 50 43 C 50 39.138223 46.810064 36 42.917969 36 L 33.414062 36 L 37.707031 31.707031 A 1.0001 1.0001 0 0 0 36.980469 29.990234 z"/></svg>