<svg fill="#000000" xmlns="http://www.w3.org/2000/svg"  viewBox="0 0 50 50" width="50px" height="50px"><path d="M 24.90625 -0.03125 C 24.863281 -0.0234375 24.820313 -0.0117188 24.78125 0 C 24.316406 0.105469 23.988281 0.523438 24 1 L 24 4 L 0 4 L 0 38 L 24 38 L 24 39.5625 L 15.28125 48.28125 C 14.882813 48.679688 14.882813 49.320313 15.28125 49.71875 C 15.679688 50.117188 16.320313 50.117188 16.71875 49.71875 L 24 42.4375 L 24 45 C 23.996094 45.359375 24.183594 45.695313 24.496094 45.878906 C 24.808594 46.058594 25.191406 46.058594 25.503906 45.878906 C 25.816406 45.695313 26.003906 45.359375 26 45 L 26 42.4375 L 33.28125 49.71875 C 33.679688 50.117188 34.320313 50.117188 34.71875 49.71875 C 35.117188 49.320313 35.117188 48.679688 34.71875 48.28125 L 26 39.59375 L 26 38 L 50 38 L 50 4 L 26 4 L 26 1 C 26.011719 0.710938 25.894531 0.433594 25.6875 0.238281 C 25.476563 0.0390625 25.191406 -0.0585938 24.90625 -0.03125 Z M 2 6 L 48 6 L 48 36 L 25.1875 36 C 25.054688 35.972656 24.914063 35.972656 24.78125 36 L 2 36 Z M 41 14 C 39.894531 14 39 14.894531 39 16 C 39 16.085938 39.019531 16.167969 39.03125 16.25 L 28.78125 24.15625 C 28.542969 24.054688 28.277344 24 28 24 C 27.722656 24 27.457031 24.054688 27.21875 24.15625 L 27.1875 24.15625 L 19 18.1875 C 19.003906 18.125 19 18.0625 19 18 C 19 16.894531 18.105469 16 17 16 C 15.894531 16 15 16.894531 15 18 C 15 18.074219 15.023438 18.144531 15.03125 18.21875 L 9.78125 22.15625 C 9.542969 22.054688 9.277344 22 9 22 C 7.894531 22 7 22.894531 7 24 C 7 25.105469 7.894531 26 9 26 C 10.105469 26 11 25.105469 11 24 C 11 23.925781 10.976563 23.855469 10.96875 23.78125 L 16.21875 19.84375 C 16.457031 19.945313 16.722656 20 17 20 C 17.277344 20 17.542969 19.945313 17.78125 19.84375 L 17.8125 19.84375 L 26 25.8125 C 25.996094 25.875 26 25.9375 26 26 C 26 27.105469 26.894531 28 28 28 C 29.105469 28 30 27.105469 30 26 C 30 25.914063 29.980469 25.832031 29.96875 25.75 L 40.21875 17.84375 L 40.25 17.84375 C 40.480469 17.9375 40.734375 18 41 18 C 42.105469 18 43 17.105469 43 16 C 43 14.894531 42.105469 14 41 14 Z"/></svg>